<?xml version="1.0" encoding="utf-8"?>
<!-- Generator: Adobe Illustrator 14.0.0, SVG Export Plug-In . SVG Version: 6.00 Build 43363)  -->
<!DOCTYPE svg PUBLIC "-//W3C//DTD SVG 1.1//EN" "http://www.w3.org/Graphics/SVG/1.1/DTD/svg11.dtd">
<svg version="1.1" id="Layer_1" xmlns="http://www.w3.org/2000/svg" xmlns:xlink="http://www.w3.org/1999/xlink" x="0px" y="0px"
	 width="514.084px" height="80.986px" viewBox="0 0 514.084 80.986" enable-background="new 0 0 514.084 80.986"
	 xml:space="preserve">
<g>
	<path fill="#2976B0" d="M16.542,13.072c0,0,1.254-0.517,3.689-0.517c2.583,0,3.836,0.517,3.836,0.517v46.113h22.061
		c0.369,0.886,0.59,2.066,0.59,3.247s-0.221,2.287-0.59,3.246H16.542V13.072z"/>
	<path fill="#2976B0" d="M67.448,26.131c10.182,0,16.38,5.534,16.38,20.143c0,14.608-6.271,20.143-16.38,20.143
		c-10.108,0-16.379-5.534-16.379-20.143C51.068,31.665,57.34,26.131,67.448,26.131z M67.448,31.812
		c-5.386,0-8.854,3.099-8.854,14.461s3.468,14.461,8.854,14.461c5.386,0,8.78-3.099,8.78-14.461S72.834,31.812,67.448,31.812z"/>
	<path fill="#2976B0" d="M122.854,65.162c0,0-1.254,0.517-3.689,0.517c-2.508,0-3.689-0.517-3.689-0.517V38.6
		c0-4.131-2.14-6.493-6.862-6.493c-3.247,0-6.419,1.771-8.337,4.722v28.332c0,0-1.329,0.517-3.689,0.517
		c-2.583,0-3.689-0.517-3.689-0.517V27.386c0,0,1.106-0.517,3.689-0.517c2.361,0,3.689,0.517,3.689,0.517v3.394
		c2.655-3.025,6.492-4.648,11.141-4.648c7.378,0,11.436,4.501,11.436,11.141V65.162z"/>
	<path fill="#2976B0" d="M160.036,10.342c2.435,0,3.615,0.517,3.615,0.517v54.303c0,0-1.254,0.517-3.099,0.517
		c-1.844,0-3.32-0.517-3.32-0.517l-0.517-3.984c-2.14,3.247-5.534,5.239-11.067,5.239c-8.411,0-13.872-5.091-13.872-20.143
		c0-15.051,5.46-20.143,13.872-20.143c5.165,0,8.485,1.771,10.625,4.796V10.858C156.273,10.858,157.528,10.342,160.036,10.342z
		 M148.231,32.182c-5.902,0-8.854,3.099-8.854,14.092c0,10.993,2.952,14.092,8.854,14.092c5.165,0,8.042-4.353,8.042-9.443v-9.519
		C156.199,36.46,153.322,32.182,148.231,32.182z"/>
	<path fill="#2976B0" d="M189.103,26.131c10.182,0,16.379,5.534,16.379,20.143c0,14.608-6.271,20.143-16.379,20.143
		c-10.108,0-16.38-5.534-16.38-20.143C172.723,31.665,178.994,26.131,189.103,26.131z M189.103,31.812
		c-5.386,0-8.854,3.099-8.854,14.461s3.468,14.461,8.854,14.461c5.386,0,8.78-3.099,8.78-14.461S194.488,31.812,189.103,31.812z"/>
	<path fill="#2976B0" d="M244.508,65.162c0,0-1.254,0.517-3.689,0.517c-2.509,0-3.689-0.517-3.689-0.517V38.6
		c0-4.131-2.14-6.493-6.861-6.493c-3.247,0-6.419,1.771-8.337,4.722v28.332c0,0-1.328,0.517-3.689,0.517
		c-2.583,0-3.689-0.517-3.689-0.517V27.386c0,0,1.106-0.517,3.689-0.517c2.361,0,3.689,0.517,3.689,0.517v3.394
		c2.656-3.025,6.493-4.648,11.141-4.648c7.378,0,11.436,4.501,11.436,11.141V65.162z"/>
	<path fill="#2976B0" d="M255.793,13.072c0,0,1.254-0.517,3.689-0.517c2.583,0,3.837,0.517,3.837,0.517v46.113h22.062
		c0.368,0.886,0.59,2.066,0.59,3.247s-0.222,2.287-0.59,3.246h-29.587V13.072z"/>
	<path fill="#2976B0" d="M306.7,26.131c10.182,0,16.379,5.534,16.379,20.143c0,14.608-6.271,20.143-16.379,20.143
		s-16.38-5.534-16.38-20.143C290.32,31.665,296.591,26.131,306.7,26.131z M306.7,31.812c-5.386,0-8.854,3.099-8.854,14.461
		s3.469,14.461,8.854,14.461s8.78-3.099,8.78-14.461S312.085,31.812,306.7,31.812z"/>
	<path fill="#2976B0" d="M346.095,10.342c4.944,0,8.116,1.55,8.116,1.55c-0.073,2.066-0.664,3.689-1.919,5.165
		c0,0-2.286-0.812-5.68-0.812c-4.206,0-5.46,1.918-5.46,5.829v4.796h9.222c0.222,0.812,0.369,1.771,0.369,2.877
		c0,0.959-0.147,1.845-0.369,2.656h-9.222v32.759c0,0-1.255,0.517-3.689,0.517c-2.583,0-3.689-0.517-3.689-0.517V32.403h-4.87
		c-0.147-0.812-0.368-1.771-0.368-2.804c0-1.106,0.146-1.992,0.368-2.73h4.87v-4.427C333.774,15.285,336.726,10.342,346.095,10.342z
		"/>
	<path fill="#2976B0" d="M367.49,51.734c0,6.714,2.139,8.706,7.378,8.706c1.476,0,3.1-0.295,3.1-0.295s0.515,1.254,0.515,2.951
		c0,1.696-0.367,2.656-0.367,2.656c-1.328,0.369-3.321,0.664-5.312,0.664c-9.075,0-12.691-4.943-12.691-14.313v-19.7h-5.681
		c0,0-0.442-1.033-0.442-2.73c0-1.844,0.442-2.804,0.442-2.804h5.681v-6.714c1.919-1.18,4.648-1.697,7.379-1.475v8.189h9.592
		c0,0,0.442,0.959,0.442,2.73c0,1.697-0.442,2.804-0.442,2.804h-9.592V51.734z"/>
	<path fill="#2976B0" d="M397.737,26.131c7.231,0,10.403,1.992,10.403,1.992c0,1.918-0.664,4.058-1.919,5.239
		c0,0-3.541-1.181-7.746-1.181c-5.018,0-7.525,1.844-7.525,5.312c0,3.615,4.647,4.501,9.297,6.051
		c4.795,1.549,9.812,3.836,9.812,11.067c0,7.451-4.648,11.805-14.019,11.805c-7.747,0-12.321-2.656-12.321-2.656
		c0-2.14,0.663-4.206,1.991-5.461c0,0,4.797,1.846,9.961,1.846c4.501,0,7.083-1.697,7.083-5.312c0-4.059-4.059-4.943-8.411-6.198
		c-5.017-1.475-10.477-3.614-10.477-10.919C383.867,30.78,388.367,26.131,397.737,26.131z"/>
	<path fill="#2976B0" d="M438.831,16.023c0,0,1.254-0.517,3.763-0.517c2.434,0,3.541,0.517,3.541,0.517V47.16h6.566
		c0,0,0.518,1.032,0.518,2.951c0,1.918-0.518,2.951-0.518,2.951h-6.566v12.1c0,0-1.255,0.517-3.394,0.517
		c-2.288,0-3.616-0.517-3.616-0.517v-12.1h-23.24c0,0-0.59-1.033-0.59-2.951c0-1.919,0.59-2.951,0.59-2.951L438.831,16.023z
		 M423.262,47.16h15.862V25.689L423.262,47.16z"/>
	<path fill="#2976B0" d="M499.18,47.676c0,12.026-7.379,18.74-18.667,18.74c-11.216,0-18.52-6.862-18.52-18.74V13.072
		c0,0,1.254-0.517,3.689-0.517c2.508,0,3.762,0.517,3.762,0.517v35.784c0,7.083,4.132,11.215,11.216,11.215
		c7.156,0,11.141-4.132,11.141-11.215V13.072c0,0,1.181-0.517,3.615-0.517s3.764,0.517,3.764,0.517V47.676z"/>
</g>
</svg>
